<svg xmlns="http://www.w3.org/2000/svg" width="655" height="770" viewBox="0 0 655 770">
  <g id="Group_1" data-name="Group 1" transform="translate(-765 -155)">
    <g id="Rectangle_1" data-name="Rectangle 1" transform="translate(1409 155)" fill="#8f8f8f" stroke="#707070" stroke-width="1">
      <rect width="11" height="770" stroke="none"/>
      <rect x="0.5" y="0.5" width="10" height="769" fill="none"/>
    </g>
    <g id="Rectangle_2" data-name="Rectangle 2" transform="translate(1381 155)" fill="#8f8f8f" stroke="#707070" stroke-width="1">
      <rect width="11" height="770" stroke="none"/>
      <rect x="0.5" y="0.5" width="10" height="769" fill="none"/>
    </g>
    <g id="Rectangle_3" data-name="Rectangle 3" transform="translate(1353 155)" fill="#8f8f8f" stroke="#707070" stroke-width="1">
      <rect width="11" height="770" stroke="none"/>
      <rect x="0.5" y="0.5" width="10" height="769" fill="none"/>
    </g>
    <g id="Rectangle_4" data-name="Rectangle 4" transform="translate(1325 155)" fill="#8f8f8f" stroke="#707070" stroke-width="1">
      <rect width="11" height="770" stroke="none"/>
      <rect x="0.5" y="0.5" width="10" height="769" fill="none"/>
    </g>
    <g id="Rectangle_5" data-name="Rectangle 5" transform="translate(1297 155)" fill="#8f8f8f" stroke="#707070" stroke-width="1">
      <rect width="11" height="770" stroke="none"/>
      <rect x="0.5" y="0.5" width="10" height="769" fill="none"/>
    </g>
    <g id="Rectangle_6" data-name="Rectangle 6" transform="translate(1269 155)" fill="#8f8f8f" stroke="#707070" stroke-width="1">
      <rect width="11" height="770" stroke="none"/>
      <rect x="0.5" y="0.5" width="10" height="769" fill="none"/>
    </g>
    <g id="Rectangle_7" data-name="Rectangle 7" transform="translate(1241 155)" fill="#8f8f8f" stroke="#707070" stroke-width="1">
      <rect width="11" height="770" stroke="none"/>
      <rect x="0.5" y="0.5" width="10" height="769" fill="none"/>
    </g>
    <g id="Rectangle_8" data-name="Rectangle 8" transform="translate(1213 155)" fill="#8f8f8f" stroke="#707070" stroke-width="1">
      <rect width="11" height="770" stroke="none"/>
      <rect x="0.5" y="0.5" width="10" height="769" fill="none"/>
    </g>
    <g id="Rectangle_9" data-name="Rectangle 9" transform="translate(1185 155)" fill="#8f8f8f" stroke="#707070" stroke-width="1">
      <rect width="11" height="770" stroke="none"/>
      <rect x="0.5" y="0.5" width="10" height="769" fill="none"/>
    </g>
    <g id="Rectangle_10" data-name="Rectangle 10" transform="translate(1157 155)" fill="#8f8f8f" stroke="#707070" stroke-width="1">
      <rect width="11" height="770" stroke="none"/>
      <rect x="0.5" y="0.5" width="10" height="769" fill="none"/>
    </g>
    <g id="Rectangle_11" data-name="Rectangle 11" transform="translate(1129 155)" fill="#8f8f8f" stroke="#707070" stroke-width="1">
      <rect width="11" height="770" stroke="none"/>
      <rect x="0.5" y="0.5" width="10" height="769" fill="none"/>
    </g>
    <g id="Rectangle_12" data-name="Rectangle 12" transform="translate(1101 155)" fill="#8f8f8f" stroke="#707070" stroke-width="1">
      <rect width="11" height="770" stroke="none"/>
      <rect x="0.5" y="0.5" width="10" height="769" fill="none"/>
    </g>
    <g id="Rectangle_13" data-name="Rectangle 13" transform="translate(1073 155)" fill="#8f8f8f" stroke="#707070" stroke-width="1">
      <rect width="11" height="770" stroke="none"/>
      <rect x="0.5" y="0.5" width="10" height="769" fill="none"/>
    </g>
    <g id="Rectangle_14" data-name="Rectangle 14" transform="translate(1045 155)" fill="#8f8f8f" stroke="#707070" stroke-width="1">
      <rect width="11" height="770" stroke="none"/>
      <rect x="0.5" y="0.5" width="10" height="769" fill="none"/>
    </g>
    <g id="Rectangle_15" data-name="Rectangle 15" transform="translate(1017 155)" fill="#8f8f8f" stroke="#707070" stroke-width="1">
      <rect width="11" height="770" stroke="none"/>
      <rect x="0.5" y="0.5" width="10" height="769" fill="none"/>
    </g>
    <g id="Rectangle_16" data-name="Rectangle 16" transform="translate(989 155)" fill="#8f8f8f" stroke="#707070" stroke-width="1">
      <rect width="11" height="770" stroke="none"/>
      <rect x="0.5" y="0.5" width="10" height="769" fill="none"/>
    </g>
    <g id="Rectangle_17" data-name="Rectangle 17" transform="translate(961 155)" fill="#8f8f8f" stroke="#707070" stroke-width="1">
      <rect width="11" height="770" stroke="none"/>
      <rect x="0.5" y="0.5" width="10" height="769" fill="none"/>
    </g>
    <g id="Rectangle_18" data-name="Rectangle 18" transform="translate(933 155)" fill="#8f8f8f" stroke="#707070" stroke-width="1">
      <rect width="11" height="770" stroke="none"/>
      <rect x="0.5" y="0.5" width="10" height="769" fill="none"/>
    </g>
    <g id="Rectangle_19" data-name="Rectangle 19" transform="translate(905 155)" fill="#8f8f8f" stroke="#707070" stroke-width="1">
      <rect width="11" height="770" stroke="none"/>
      <rect x="0.5" y="0.5" width="10" height="769" fill="none"/>
    </g>
    <g id="Rectangle_20" data-name="Rectangle 20" transform="translate(877 155)" fill="#8f8f8f" stroke="#707070" stroke-width="1">
      <rect width="11" height="770" stroke="none"/>
      <rect x="0.5" y="0.5" width="10" height="769" fill="none"/>
    </g>
    <g id="Rectangle_21" data-name="Rectangle 21" transform="translate(849 155)" fill="#8f8f8f" stroke="#707070" stroke-width="1">
      <rect width="11" height="770" stroke="none"/>
      <rect x="0.5" y="0.5" width="10" height="769" fill="none"/>
    </g>
    <g id="Rectangle_22" data-name="Rectangle 22" transform="translate(821 155)" fill="#8f8f8f" stroke="#707070" stroke-width="1">
      <rect width="11" height="770" stroke="none"/>
      <rect x="0.5" y="0.5" width="10" height="769" fill="none"/>
    </g>
    <g id="Rectangle_23" data-name="Rectangle 23" transform="translate(793 155)" fill="#8f8f8f" stroke="#707070" stroke-width="1">
      <rect width="11" height="770" stroke="none"/>
      <rect x="0.5" y="0.5" width="10" height="769" fill="none"/>
    </g>
    <g id="Rectangle_24" data-name="Rectangle 24" transform="translate(765 155)" fill="#8f8f8f" stroke="#707070" stroke-width="1">
      <rect width="11" height="770" stroke="none"/>
      <rect x="0.5" y="0.5" width="10" height="769" fill="none"/>
    </g>
  </g>
</svg>
