<svg xmlns="http://www.w3.org/2000/svg" width="1200.116" height="1201.049" viewBox="0 0 1200.116 1201.049">
  <path id="Intersection_1" data-name="Intersection 1" d="M438.767,868h132.29a444.408,444.408,0,0,1-132.29,0Zm-51.5-11a433.119,433.119,0,0,1-54.163-19h343.61a433.121,433.121,0,0,1-54.163,19Zm-77.893-30q-18.339-9.186-35.614-20h462.3q-17.268,10.8-35.614,20Zm-52.323-31q-13.08-9.052-25.4-19H778.166q-12.334,9.957-25.4,19Zm-38.482-30q-11.011-9.637-21.335-20H812.585q-10.309,10.347-21.335,20ZM183,731q-8.374-9.264-16.187-19H843.008q-7.813,9.737-16.187,19Zm-26.947-33q-6.859-9.32-13.193-19h724.1q-6.341,9.692-13.193,19Zm-20.148-30q-6-9.824-11.469-20H885.385q-5.459,10.161-11.469,20Zm-17.666-32q-4.654-9.383-8.831-19h791q-4.184,9.635-8.831,19Zm-14.216-32q-3.509-8.9-6.616-18h815q-3.1,9.089-6.616,18ZM93.213,573c-2.013-6.609-3.856-13.259-5.54-20H922.15c-1.684,6.741-3.528,13.391-5.54,20Zm-8.128-31q-2.078-9.416-3.726-19H928.465q-1.643,9.567-3.726,19ZM79.2,509c-.812-5.956-1.5-11.968-2.053-18H932.673c-.554,6.032-1.241,12.044-2.052,18Zm-2.979-30q-.622-9.934-.769-20H934.368q-.145,10.054-.769,20Zm-.77-32c.1-6.717.35-13.363.764-20H933.605c.414,6.637.669,13.284.764,20Zm1.6-31c.569-6.382,1.281-12.7,2.138-19H930.634c.857,6.3,1.57,12.617,2.138,19Zm4.291-33c1.1-6.392,2.334-12.71,3.721-19h839.7c1.387,6.291,2.626,12.609,3.721,19Zm6.306-30q2.52-10.093,5.535-20H916.641q3.01,9.9,5.535,20Zm9.387-32q3.42-10.113,7.346-20h801.06q3.922,9.879,7.346,20Zm12.331-32q3.951-9.1,8.331-18H892.126q4.37,8.878,8.331,18Zm15.556-32c3.472-6.425,7.126-12.779,10.923-19H873.977c3.8,6.222,7.451,12.576,10.923,19ZM142.8,227q6.676-10.21,13.922-20H853.1q7.25,9.8,13.922,20Zm23.938-33q8.221-10.251,17.083-20H826.005q8.842,9.726,17.083,20Zm29.411-33q10.229-10.342,21.175-20H792.5q10.927,9.639,21.175,20Zm35.388-32q11.631-9.4,23.94-18H754.35q12.3,8.593,23.94,18ZM273.6,99q17.246-10.8,35.574-20h391.47q18.315,9.187,35.574,20Zm59.269-31a432.665,432.665,0,0,1,54.04-19h236a432.664,432.664,0,0,1,54.04,19ZM438.109,38a444.372,444.372,0,0,1,133.6,0Z" transform="translate(586.975 -77.655) rotate(47)" fill="#9b9b9b"/>
</svg>
