<svg xmlns="http://www.w3.org/2000/svg" width="428" height="832.002" viewBox="0 0 428 832.002">
  <g id="Subtraction_1" data-name="Subtraction 1" transform="translate(0 -111)" fill="#848484">
    <path d="M 427.50048828125 942.4999389648438 C 413.0808715820312 942.483642578125 398.5458679199219 941.76220703125 384.2889404296875 940.3548583984375 C 370.0766906738281 938.9519653320312 355.7950439453125 936.8334350585938 341.8406982421875 934.05810546875 C 328.0682678222656 931.31884765625 314.283935546875 927.8739624023438 300.8706970214844 923.8192138671875 C 287.6084899902344 919.8097534179688 274.3937072753906 915.108642578125 261.5933837890625 909.846435546875 C 236.2619323730469 899.4325561523438 211.8296966552734 886.54296875 188.9754791259766 871.5360107421875 C 166.3390350341797 856.672119140625 145.0523681640625 839.601318359375 125.7065963745117 820.798095703125 C 106.3613739013672 801.9951171875 88.79859161376953 781.3056640625 73.50625610351562 759.304443359375 C 58.06703567504883 737.0923461914062 44.80648040771484 713.3465576171875 34.09270477294922 688.7267456054688 C 28.67892646789551 676.2857666015625 23.84270477294922 663.4425659179688 19.71825981140137 650.5536499023438 C 15.54681491851807 637.5177612304688 12.00281524658203 624.12109375 9.184703826904297 610.7359008789062 C 6.329703807830811 597.1752319335938 4.150259494781494 583.29541015625 2.707037210464478 569.4819946289062 C 1.242592692375183 555.4671020507812 0.5000371932983398 541.1741943359375 0.5000371932983398 527.0004272460938 C 0.5000371932983398 512.8267822265625 1.242592692375183 498.5337524414062 2.707037210464478 484.5187683105469 C 4.150259494781494 470.7054138183594 6.329703807830811 456.8256530761719 9.184703826904297 443.2646484375 C 12.00303745269775 429.8783264160156 15.54703712463379 416.4816589355469 19.71825981140137 403.4468688964844 C 23.84270477294922 390.55810546875 28.67892646789551 377.7147521972656 34.09270477294922 365.2735290527344 C 44.80659103393555 340.6534423828125 58.0672607421875 316.9076538085938 73.50625610351562 294.6956481933594 C 88.79914855957031 272.6937561035156 106.3619232177734 252.0043182373047 125.7065963745117 233.2019805908203 C 145.0518188476562 214.3992004394531 166.3384857177734 197.3284301757812 188.9754791259766 182.4639892578125 C 211.8296966552734 167.4568786621094 236.2619323730469 154.5673217773438 261.5933837890625 144.1535339355469 C 274.3937072753906 138.8912048339844 287.6084899902344 134.1900939941406 300.8706970214844 130.1807556152344 C 314.2846069335938 126.1257629394531 328.0688171386719 122.6807632446289 341.8406982421875 119.9417572021484 C 355.7950439453125 117.1664276123047 370.0766906738281 115.0478744506836 384.2889404296875 113.6449813842773 C 398.5458679199219 112.237678527832 413.0808715820312 111.5162200927734 427.50048828125 111.4999313354492 L 427.50048828125 942.4999389648438 Z" stroke="none"/>
    <path d="M 427.00048828125 941.9990844726562 L 427.00048828125 112.0007858276367 C 412.7616882324219 112.0330276489258 398.4136657714844 112.7531967163086 384.3380432128906 114.1425399780273 C 370.1419372558594 115.5438690185547 355.8765869140625 117.6599807739258 341.9382629394531 120.4320907592773 C 328.1822509765625 123.1679840087891 314.413818359375 126.6089859008789 301.015380859375 130.659423828125 C 287.7684936523438 134.6640930175781 274.5689392089844 139.3597564697266 261.7834777832031 144.6159820556641 C 236.4813690185547 155.0177612304688 212.0775909423828 167.8922119140625 189.2499237060547 182.8818664550781 C 166.6393737792969 197.7289886474609 145.3775939941406 214.7797546386719 126.0551452636719 233.5605316162109 C 106.7333679199219 252.3405456542969 89.19148254394531 273.0054321289062 73.91681671142578 294.9810791015625 C 58.4965934753418 317.1661071777344 45.25203704833984 340.8829956054688 34.5512580871582 365.4729919433594 C 29.1440372467041 377.8988647460938 24.31381416320801 390.7264404296875 20.19448089599609 403.5992126464844 C 16.02836990356445 416.6178588867188 12.48881530761719 429.9978637695312 9.674036979675293 443.3676452636719 C 6.822481632232666 456.911865234375 4.645703792572021 470.7745361328125 3.204259395599365 484.5706481933594 C 1.741703867912292 498.5685424804688 1.00003719329834 512.843994140625 1.00003719329834 527.0004272460938 C 1.00003719329834 541.1568603515625 1.741703867912292 555.4323120117188 3.204259395599365 569.4301147460938 C 4.645703792572021 583.2264404296875 6.822481632232666 597.0889892578125 9.674036979675293 610.6328735351562 C 12.48859310150146 624.0015258789062 16.02814865112305 637.3815307617188 20.19448089599609 650.4011840820312 C 24.31381416320801 663.2742309570312 29.1441478729248 676.1016235351562 34.5511474609375 688.52734375 C 45.25181579589844 713.1170043945312 58.49637222290039 736.833740234375 73.91681671142578 759.0189819335938 C 89.19092559814453 780.9939575195312 106.7328186035156 801.6588745117188 126.0551452636719 820.4395141601562 C 145.3781433105469 839.2207641601562 166.6399230957031 856.2714233398438 189.2499237060547 871.1181030273438 C 212.0775909423828 886.107666015625 236.4813690185547 898.9821166992188 261.7834777832031 909.3839721679688 C 274.5689392089844 914.6400756835938 287.7684936523438 919.3358764648438 301.015380859375 923.3405151367188 C 314.4131469726562 927.390625 328.1815795898438 930.8316650390625 341.9382629394531 933.5677490234375 C 355.8765869140625 936.33984375 370.1419372558594 938.4559936523438 384.3380432128906 939.8572998046875 C 398.4136657714844 941.2466430664062 412.7616882324219 941.9668579101562 427.00048828125 941.9990844726562 M 428.00048828125 943.001220703125 L 428.00048828125 943.0001831054688 C 413.4003601074219 943.0001831054688 398.6771545410156 942.2775268554688 384.2398071289062 940.8524169921875 C 370.0105895996094 939.4478759765625 355.7127075195312 937.3268432617188 341.7431335449219 934.5485229492188 C 327.9548034667969 931.8060913085938 314.1546020507812 928.357177734375 300.7260437011719 924.2977905273438 C 287.4488220214844 920.2838745117188 274.2185974121094 915.5773315429688 261.4032592773438 910.3088989257812 C 236.0423736572266 899.8828735351562 211.5818176269531 886.9784545898438 188.7010345458984 871.9539794921875 C 166.0383758544922 857.07275390625 144.7266998291016 839.9821166992188 125.3581466674805 821.1566772460938 C 105.9900360107422 802.3314208984375 88.4063720703125 781.6173095703125 73.095703125 759.5897827148438 C 57.63781356811523 737.3507690429688 44.36103820800781 713.5761108398438 33.63425827026367 688.9263305664062 C 28.21381568908691 676.469970703125 23.3715934753418 663.6109008789062 19.24203681945801 650.7059936523438 C 15.06559276580811 637.6546630859375 11.5171480178833 624.241455078125 8.695481300354004 610.8388671875 C 5.836814880371094 597.26123046875 3.654703855514526 583.3641967773438 2.209703922271729 569.5339965820312 C 0.7434816360473633 555.5018920898438 3.717719300766475e-05 541.1915283203125 3.717719300766475e-05 527.0004272460938 C 3.717719300766475e-05 512.8094482421875 0.7434816360473633 498.4989929199219 2.209703922271729 484.4667663574219 C 3.654703855514526 470.6365356445312 5.836814880371094 456.7395324707031 8.695481300354004 443.1616516113281 C 11.5171480178833 429.7592163085938 15.06548118591309 416.3458862304688 19.24203681945801 403.29443359375 C 23.37148094177246 390.3899841308594 28.21370315551758 377.53076171875 33.63425827026367 365.073974609375 C 44.36114883422852 340.4241027832031 57.63781356811523 316.6494140625 73.095703125 294.4103088378906 C 88.40670013427734 272.3824157714844 105.9902572631836 251.6683197021484 125.3581466674805 232.8434295654297 C 144.7262573242188 214.018310546875 166.0379333496094 196.9276428222656 188.7010345458984 182.0459899902344 C 211.5818176269531 167.0214233398438 236.0423736572266 154.1169891357422 261.4032592773438 143.6911010742188 C 274.2185974121094 138.4225311279297 287.4488220214844 133.7159881591797 300.7260437011719 129.7022094726562 C 314.1542663574219 125.6427612304688 327.9543762207031 122.1937637329102 341.7431335449219 119.4513168334961 C 355.7127075195312 116.672981262207 370.0105895996094 114.5519790649414 384.2398071289062 113.1474304199219 C 398.6771545410156 111.7223129272461 413.4003601074219 110.9996490478516 428.00048828125 110.9996490478516 L 428.00048828125 943.001220703125 Z" stroke="none" fill="#848484"/>
  </g>
</svg>
